<svg width="512" height="512" viewBox="0 0 512 512" fill="none" xmlns="http://www.w3.org/2000/svg">
<path d="M394 256.5C402.837 256.5 410.086 263.683 409.167 272.472C405.523 307.313 390.038 340.044 365.041 365.041C336.254 393.828 297.211 410 256.5 410C215.789 410 176.746 393.828 147.959 365.041C122.962 340.044 107.477 307.313 103.833 272.472C102.914 263.683 110.163 256.5 119 256.5L148.328 256.5C157.165 256.5 164.187 263.717 165.713 272.42C168.963 290.955 177.839 308.189 191.325 321.675C208.61 338.961 232.055 348.672 256.5 348.672C280.945 348.672 304.39 338.961 321.675 321.675C335.161 308.189 344.037 290.955 347.287 272.42C348.813 263.716 355.835 256.5 364.672 256.5H394Z" fill="#8F8F8F"/>
</svg>
